<svg width="180" height="40" viewBox="0 0 180 40" fill="none" xmlns="http://www.w3.org/2000/svg">
  <!-- EMME text -->
  <g fill="#2563EB">
    <!-- E -->
    <rect x="8" y="12" width="12" height="2"/>
    <rect x="8" y="12" width="2" height="16"/>
    <rect x="8" y="19" width="10" height="2"/>
    <rect x="8" y="26" width="12" height="2"/>
    
    <!-- M -->
    <rect x="24" y="12" width="2" height="16"/>
    <rect x="26" y="12" width="2" height="4"/>
    <rect x="28" y="16" width="2" height="4"/>
    <rect x="30" y="12" width="2" height="4"/>
    <rect x="32" y="12" width="2" height="16"/>
    
    <!-- M -->
    <rect x="38" y="12" width="2" height="16"/>
    <rect x="40" y="12" width="2" height="4"/>
    <rect x="42" y="16" width="2" height="4"/>
    <rect x="44" y="12" width="2" height="4"/>
    <rect x="46" y="12" width="2" height="16"/>
    
    <!-- E -->
    <rect x="52" y="12" width="12" height="2"/>
    <rect x="52" y="12" width="2" height="16"/>
    <rect x="52" y="19" width="10" height="2"/>
    <rect x="52" y="26" width="12" height="2"/>
  </g>
  
  <!-- Engage text -->
  <g fill="#0EA5E9" font-family="Arial, sans-serif" font-size="14" font-weight="600">
    <text x="68" y="25">Engage</text>
  </g>
  
  <!-- Pharmaceutical molecules/DNA helix design -->
  <g fill="#0EA5E9" opacity="0.7">
    <circle cx="120" cy="16" r="1.5"/>
    <circle cx="124" cy="18" r="1"/>
    <circle cx="128" cy="14" r="1.5"/>
    <circle cx="132" cy="16" r="1"/>
    <circle cx="136" cy="12" r="1.5"/>
    
    <circle cx="122" cy="24" r="1"/>
    <circle cx="126" cy="26" r="1.5"/>
    <circle cx="130" cy="22" r="1"/>
    <circle cx="134" cy="24" r="1.5"/>
    <circle cx="138" cy="20" r="1"/>
    
    <!-- Connecting lines -->
    <line x1="120" y1="16" x2="124" y2="18" stroke="#0EA5E9" stroke-width="0.5" opacity="0.4"/>
    <line x1="124" y1="18" x2="128" y2="14" stroke="#0EA5E9" stroke-width="0.5" opacity="0.4"/>
    <line x1="128" y1="14" x2="132" y2="16" stroke="#0EA5E9" stroke-width="0.5" opacity="0.4"/>
    <line x1="132" y1="16" x2="136" y2="12" stroke="#0EA5E9" stroke-width="0.5" opacity="0.4"/>
    
    <line x1="122" y1="24" x2="126" y2="26" stroke="#0EA5E9" stroke-width="0.5" opacity="0.4"/>
    <line x1="126" y1="26" x2="130" y2="22" stroke="#0EA5E9" stroke-width="0.5" opacity="0.4"/>
    <line x1="130" y1="22" x2="134" y2="24" stroke="#0EA5E9" stroke-width="0.5" opacity="0.4"/>
    <line x1="134" y1="24" x2="138" y2="20" stroke="#0EA5E9" stroke-width="0.5" opacity="0.4"/>
  </g>
  
  <!-- Tagline -->
  <g fill="#6B7280" font-family="Arial, sans-serif" font-size="8" font-weight="400">
    <text x="8" y="36">Pharmaceutical Marketing Intelligence</text>
  </g>
</svg>